<?xml version="1.0" encoding="utf-8"?>
<!-- Generator: Adobe Illustrator 17.0.0, SVG Export Plug-In . SVG Version: 6.00 Build 0)  -->
<!DOCTYPE svg PUBLIC "-//W3C//DTD SVG 1.1//EN" "http://www.w3.org/Graphics/SVG/1.1/DTD/svg11.dtd">
<svg version="1.1" id="Shape_12_1_" xmlns="http://www.w3.org/2000/svg" xmlns:xlink="http://www.w3.org/1999/xlink" x="0px"
	 y="0px" width="86px" height="77px" viewBox="0 0 86 77" enable-background="new 0 0 86 77" xml:space="preserve">
<g id="Shape_12">
	<g>
		<path fill-rule="evenodd" clip-rule="evenodd" fill="#009CEA" d="M82.596,31.291v0.003L79.9,40.97
			c-0.628,2.271-1.135,4.302-1.444,6.253h-0.118c-0.428-1.951-0.976-3.984-1.682-6.291l-2.933-9.638h-2.889l-3.089,9.835
			c-0.626,2.072-1.254,4.14-1.68,6.091h-0.121c-0.35-1.991-0.862-3.984-1.407-6.133l-2.502-9.796h-3.519l5.704,19.275h3.131
			l3.049-9.159c0.663-2.072,1.252-4.062,1.724-6.373h0.08c0.472,2.27,1.016,4.182,1.68,6.336l2.89,9.196h3.128l6.104-19.275H82.596z
			 M11.878,41.407c0.661-2.069,1.25-4.059,1.719-6.37h0.082c0.467,2.269,1.013,4.182,1.679,6.333l2.891,9.198h3.128l6.101-19.275
			h-3.402l-2.699,9.676c-0.627,2.271-1.132,4.302-1.449,6.253h-0.115c-0.427-1.951-0.977-3.984-1.678-6.291l-2.938-9.638h-2.89
			l-3.092,9.835c-0.623,2.072-1.249,4.14-1.679,6.091H7.416c-0.347-1.991-0.858-3.984-1.405-6.133l-2.5-9.797h-3.519l5.707,19.274
			h3.128L11.878,41.407z M12.451,18.76l0.316-0.505l0.566,0.148c2.191,0.573,5.798,1.411,10.533,2.163l0.789,0.126l-0.109,0.804
			c-0.308,2.247-0.531,4.519-0.691,6.797h1.002h0.611c0.158-2.199,0.372-4.391,0.667-6.559l0.114-0.812l0.796,0.106
			c4.735,0.634,9.554,1.003,14.313,1.097l0.796,0.017v6.151h1.621v-6.137l0.803-0.008c4.836-0.028,9.571-0.343,14.083-0.935
			l0.797-0.101l0.114,0.809c0.284,2.105,0.487,4.236,0.638,6.371h0.948h0.671c-0.159-2.221-0.373-4.436-0.671-6.627l-0.109-0.801
			l0.786-0.129c3.593-0.582,7.204-1.378,10.726-2.363l0.577-0.162l0.322,0.514c2.758,4.404,4.549,9.363,5.281,14.504l0.998-3.577
			C75.801,12.683,60.812,0.01,42.966,0.01C25.22,0.01,10.299,12.54,6.26,29.368l0.951,3.727C7.956,28.01,9.728,23.118,12.451,18.76z
			 M59.029,5.505c4.787,2.43,9.079,5.991,12.394,10.301l0.769,0.989l-1.197,0.32c-2.982,0.788-6.148,1.455-9.409,1.976L60.8,19.217
			l-0.138-0.802c-0.879-5.247-1.993-9.381-2.771-11.924l-0.565-1.846L59.029,5.505z M44.623,1.704
			c3.532,0.162,7.008,0.852,10.328,2.047l0.363,0.127l0.13,0.368c0.675,1.874,2.381,7.032,3.621,14.35l0.142,0.852l-0.839,0.105
			c-4.457,0.568-9.094,0.867-13.776,0.889l-0.815,0.001L43.774,1.664L44.623,1.704z M30.328,3.979l0.359-0.133
			c3.406-1.256,6.981-1.976,10.619-2.143l0.849-0.04v18.773l-0.828-0.021c-4.616-0.099-9.318-0.46-13.975-1.068l-0.838-0.109
			l0.145-0.852c1.173-6.862,2.725-11.744,3.543-14.042L30.328,3.979z M14.523,15.784c3.244-4.202,7.42-7.703,12.077-10.118
			l1.707-0.888l-0.566,1.866c-0.748,2.461-1.825,6.463-2.691,11.564l-0.137,0.797l-0.784-0.123
			c-4.038-0.632-7.208-1.321-9.156-1.787l-1.241-0.293L14.523,15.784z M73.928,57.531l-0.313,0.526l-0.585-0.154
			c-2.011-0.545-6.241-1.58-12.018-2.448l-0.841-0.126l0.164-0.848c0.204-1.091,0.392-2.188,0.559-3.288l-1.11-3.756
			c-0.274,2.32-0.633,4.63-1.075,6.916l-0.146,0.751l-0.748-0.093c-6.889-0.969-14.043-0.988-14.043-0.988v-4.112l-0.808-3.05
			l-0.764,3.052l-0.049,4.103c0,0-6.902-0.039-14.32,0.868l-0.751,0.092l-0.142-0.755c-0.436-2.28-0.789-4.586-1.061-6.899
			l-1.143,3.611c0.176,1.145,0.368,2.29,0.584,3.429l0.159,0.841l-0.834,0.13c-3.983,0.62-7.932,1.48-11.733,2.563l-0.593,0.167
			L12,57.525c-0.645-1.084-1.216-2.213-1.749-3.354H8.46c5.903,13.436,19.145,22.824,34.507,22.824
			c15.359,0,28.602-9.389,34.507-22.824h-1.795C75.148,55.319,74.575,56.446,73.928,57.531z M30.85,73.289l0.026-0.01l-1.733-0.735
			c-6.025-2.549-11.279-6.723-15.189-12.072l-0.715-0.974l1.155-0.314c3.407-0.924,7.002-1.674,10.681-2.233l0.747-0.111
			l0.168,0.745c1.045,4.69,2.465,9.363,4.218,13.892l0.692,1.791l0.198,0.089L30.85,73.289z M42.154,75.344l-0.846-0.035
			c-2.784-0.133-5.562-0.597-8.258-1.379l-0.167-0.047c-1.946-4.821-4.107-11.328-5.249-16.361l-0.203-0.901l0.897-0.106
			c4.203-0.501,8.584-0.767,13.015-0.781l0.813-0.005V75.344z M44.625,75.306l-0.851,0.035V55.737l0.825,0.02
			c4.203,0.096,8.477,0.408,12.709,0.923l0.904,0.109l-0.207,0.897c-1.152,5.024-3.483,11.549-5.43,16.326
			C49.982,74.743,47.302,75.182,44.625,75.306z M71.951,60.517c-3.976,5.418-9.326,9.621-15.471,12.149L54.9,73.32l0.04,0.02
			l-0.062,0.02l0.545-1.757c1.755-4.524,3.181-9.186,4.227-13.857l0.17-0.74l0.742,0.108c4.831,0.709,8.61,1.539,10.924,2.108
			l1.195,0.295L71.951,60.517z M49.191,47.222h-0.117c-0.428-1.951-0.98-3.984-1.681-6.291l-2.935-9.638h-2.886l-3.092,9.835
			c-0.624,2.072-1.254,4.143-1.682,6.091h-0.117c-0.351-1.99-0.861-3.982-1.409-6.133l-2.505-9.795H29.25l5.71,19.274h3.128
			l3.05-9.159c0.665-2.072,1.254-4.061,1.723-6.371h0.076c0.471,2.269,1.018,4.183,1.682,6.334l2.888,9.197h3.132l6.103-19.274
			h-3.405l-2.698,9.676C50.013,43.238,49.506,45.272,49.191,47.222z"/>
	</g>
</g>
</svg>
